<svg width="500" height="500" viewBox="0 0 500 500" fill="none" xmlns="http://www.w3.org/2000/svg">
<path d="M316.187 235.563L314.651 234.229L315.932 232.661C326.49 219.766 331.849 206.432 331.849 193.026C331.849 176.318 324.734 164.958 310.083 158.297C303.255 155.146 294.844 153.406 285.083 153.089C284.979 153.578 284.896 154.063 284.812 154.589C297.526 155.094 306.964 158.922 312.901 165.969C319.188 173.453 322.375 181.948 322.375 191.208C322.375 203.563 318.193 216.042 309.964 228.328L308.885 229.948L307.203 228.969C300.255 224.974 292.484 222.177 284.021 220.526C283.479 220.422 282.958 220.286 282.417 220.203C277.042 219.26 271.375 218.786 265.458 218.786C263.161 218.786 262.036 218.891 261.479 218.99L258.661 219.448L259.068 216.63C260.755 204.927 263.198 195.807 266.318 189.484C269.047 183.938 272.875 180.599 277.698 179.505C277.458 179.453 277.172 179.422 276.839 179.422C270.432 179.422 265.437 182.557 261.562 188.995C259.406 192.589 257.417 197.089 255.594 202.432C255.036 204.052 254.516 205.771 253.995 207.542C252.964 211.068 252.005 214.844 251.109 218.974L250.839 220.255L249.573 220.573C240.875 222.719 234.536 226.495 230.76 231.823L230.708 231.906C228.281 235.005 227.052 237.786 227.052 240.182C227.052 242.76 227.453 245.021 228.25 246.875C230.422 252.052 235.193 255.859 242.443 258.224L244.146 258.776L243.844 260.547C241.417 275.099 238.5 288.786 235.161 301.25C232.073 313.286 226.901 324.026 219.786 333.146C213.026 342.151 203.583 346.703 191.729 346.703C177.385 346.703 168.297 340.208 164.687 327.432L164.672 327.344C163.88 324.005 163.474 320.703 163.474 317.531C163.474 310.484 165.562 303.542 169.714 296.865C176.271 286.313 185.542 280.411 197.328 279.245C196.703 279.026 195.927 278.891 194.917 278.891C189.859 278.891 185.073 280.172 180.719 282.703C176.323 285.266 172.714 288.604 170.031 292.63C167.266 296.781 165.125 301.063 163.677 305.344C162.245 309.594 161.521 314.229 161.521 319.12C161.521 323.891 163.12 329.302 166.255 335.167C168.464 339.031 172.104 342.266 177.099 344.776C182.156 347.344 188.661 348.641 196.401 348.641C204.141 348.641 211.271 346.953 217.625 343.651C224.016 340.313 229.312 336.13 233.354 331.224C243.031 318.901 249.979 295.818 254.01 262.641C254.026 262.49 254.042 262.333 254.057 262.182L254.281 260.349H257.719C266.37 260.349 274.562 259 282.281 256.318C282.823 256.13 283.359 255.927 283.885 255.729C293.615 252.083 302.562 246.318 310.641 238.411L312.208 236.88L313.677 238.516C320.266 245.88 324.786 255 327.13 265.625C328.51 271.49 329.219 277.208 329.219 282.568C329.219 287.896 328.833 292.938 328.057 297.589V297.625C323.589 321.833 314.448 339.635 300.911 350.526C293.578 356.427 285.635 359.411 277.307 359.411C274.865 359.411 272.641 359.161 270.651 358.672L270.568 358.656C266.234 357.375 262.927 355.031 260.635 351.656C260.333 351.203 260.047 350.745 259.776 350.26C257.802 346.682 256.792 342.151 256.792 336.635C256.792 322.271 262.135 307.99 272.687 294.182C275.521 290.51 278.453 287.286 281.474 284.49C282.031 283.984 282.589 283.495 283.141 283.021C292.026 275.385 301.656 271.505 311.906 271.505H311.922C311.922 271.505 311.922 271.49 311.937 271.474C312.089 271.135 312.109 270.833 311.99 270.443C306.443 270.464 300.729 271.776 295.01 274.354C290.849 276.26 286.901 278.724 283.193 281.672C282.635 282.115 282.078 282.568 281.542 283.042C274.917 288.703 269.083 296.073 264.125 305.094C257.802 316.422 254.599 326.943 254.599 336.401C254.599 339.13 254.885 341.896 255.458 344.609C256.047 347.359 256.943 349.771 258.104 351.875C258.375 352.365 258.661 352.823 258.964 353.276C262.911 359.177 269.536 362.078 279.01 362.078C292.719 362.078 304.672 357.286 314.552 347.865C330.432 332.724 338.474 313.469 338.474 290.661C338.458 266.974 330.974 248.443 316.187 235.563ZM249.979 225.109C248.917 229.964 247.167 239.88 244.771 254.578L244.365 257.078L241.99 256.198C233.677 253.146 229.464 248.276 229.464 241.719C229.464 233.016 235.448 226.609 247.281 222.667L250.771 221.5L249.979 225.109ZM305.766 234.161C299.292 242.271 291.995 248.391 283.917 252.474C283.396 252.745 282.839 252.979 282.318 253.234C274.698 256.792 266.401 258.609 257.484 258.609H254.479L254.698 256.318C254.969 253.536 255.255 250.651 255.562 247.719C256.385 239.625 257.312 230.995 258.344 221.922L258.547 220.151L265.422 219.833C271.458 219.833 277.125 220.375 282.385 221.438C282.922 221.552 283.448 221.703 283.984 221.823C292.109 223.661 299.276 226.76 305.344 231.161L307.115 232.443L305.766 234.161Z" fill="#CFAA5C"/>
<path d="M212.198 268.083C213.156 268.083 214.422 267.901 215.604 266.755C212.552 266.281 209.786 265.167 207.359 263.464C199.688 258.24 195.776 248.849 195.776 235.578C195.776 217.422 202.13 200.427 214.677 185.104C225.177 172.12 238.245 163.255 253.641 158.531C253.641 158.5 253.641 158.484 253.641 158.448C253.62 158.349 253.62 158.245 253.604 158.13C253.552 157.641 253.505 157.182 253.453 156.729C246.474 158.667 239.865 161.365 233.693 164.823C215.552 174.854 202.453 189.74 194.797 209.042C190.818 218.771 188.797 227.203 188.797 234.099C188.797 241.042 189.672 247.047 191.411 251.948C195.083 262.823 201.88 268.083 212.198 268.083Z" fill="#CFAA5C"/>
<path d="M260.01 221.688L259.958 222.109C258.578 234.484 257.349 246.052 256.318 256.484L256.271 257.026H257.5C266.432 257.026 274.729 255.156 282.349 251.464C282.401 246.859 282.432 242.141 282.432 237.25V223.089C277.193 222.01 271.526 221.453 265.474 221.453L260.01 221.688Z" fill="#CFAA5C"/>
<path d="M252.979 336.401C252.979 326.672 256.25 315.88 262.708 304.318C268.036 294.62 274.375 286.797 281.609 280.88C281.911 273.802 282.115 266.161 282.25 258.021C274.526 260.615 266.349 261.948 257.719 261.948H255.693L255.646 262.385C255.63 262.505 255.609 262.625 255.594 262.74V295.703C255.594 321.193 251.734 339.651 244.13 350.526C240.068 356.344 234.568 361.505 227.943 364.234C212.5 370.609 198.354 359.344 184.344 354.677C182.12 353.932 180.115 353.563 178.464 353.563C176.995 353.563 175.797 353.849 174.906 354.438C173.656 355.25 172.964 356.682 172.766 358.807C172.479 364.604 180.906 366.849 185.964 367.656C209.094 371.349 233.88 371.094 253.198 356.073C254.479 355.078 255.693 354.052 256.891 352.99C255.542 350.677 254.531 348.016 253.891 344.964C253.286 342.115 252.979 339.234 252.979 336.401Z" fill="#CFAA5C"/>
<path d="M258.359 336.62C258.359 341.677 259.203 345.807 260.885 349.063C268.542 340.932 273.901 331.089 276.839 319.656C279.115 310.724 280.615 299.677 281.302 286.818C278.776 289.276 276.313 292.026 273.922 295.146C263.604 308.667 258.359 322.625 258.359 336.62Z" fill="#CFAA5C"/>
<path d="M253.484 149.141C253.656 149.599 253.807 150.104 253.958 150.625C254.026 150.844 254.078 151.099 254.146 151.333C254.229 151.635 254.297 151.943 254.38 152.26C254.448 152.599 254.516 152.953 254.583 153.307C254.635 153.557 254.682 153.797 254.719 154.047C254.75 154.266 254.786 154.505 254.818 154.724C254.854 154.943 254.885 155.161 254.922 155.38C254.953 155.583 254.969 155.786 255.005 156.005C255.021 156.104 255.021 156.208 255.036 156.307C255.089 156.729 255.141 157.167 255.188 157.604C255.208 157.755 255.224 157.906 255.24 158.063C255.24 158.078 255.24 158.078 255.24 158.094C255.292 158.615 255.323 159.141 255.359 159.698C255.359 159.797 255.375 159.896 255.375 160.016C255.375 160.135 255.391 160.25 255.391 160.37C255.443 161.078 255.474 161.818 255.495 162.578C255.495 162.646 255.495 162.714 255.495 162.766C255.526 163.573 255.542 164.417 255.563 165.292C255.578 165.953 255.578 166.609 255.578 167.297V197.729C257.01 194.057 258.547 190.854 260.182 188.156C264.359 181.193 269.807 177.818 276.818 177.818C277.276 177.818 277.682 177.854 278.036 177.938C278.76 178.104 279.266 178.745 279.266 179.505C279.266 180.245 278.74 180.885 278.016 181.057C273.682 182.036 270.229 185.104 267.714 190.193C264.682 196.349 262.286 205.318 260.62 216.849L260.516 217.505L261.177 217.406C262.068 217.255 263.5 217.188 265.422 217.188C271.339 217.188 276.99 217.656 282.385 218.583V167.318C282.385 164.958 282.453 162.797 282.552 160.807C282.62 159.661 282.703 158.583 282.807 157.573C282.823 157.438 282.839 157.302 282.839 157.167C282.875 156.813 282.922 156.495 282.958 156.156C282.974 156.073 282.974 155.984 282.99 155.901C283.026 155.651 283.057 155.411 283.094 155.177C283.125 154.958 283.161 154.755 283.193 154.552C283.208 154.417 283.229 154.281 283.26 154.151C283.328 153.776 283.396 153.406 283.464 153.052C283.495 152.917 283.516 152.766 283.547 152.63C283.599 152.427 283.63 152.229 283.682 152.042C283.734 151.854 283.766 151.656 283.818 151.469C283.849 151.302 283.901 151.146 283.953 150.995C284 150.828 284.036 150.677 284.089 150.505C284.219 150.036 284.375 149.563 284.526 149.141C286.057 144.958 288.974 142.109 293.208 140.646C296.75 139.411 302.026 138.573 309.276 138.115V135.755C299.073 136.313 285.385 136.599 268.51 136.599C251.365 136.599 238.01 136.328 228.734 135.771V138.115C235.984 138.589 241.245 139.411 244.802 140.646C249.021 142.109 251.938 144.979 253.484 149.141Z" fill="#CFAA5C"/>
<path d="M234.911 86.9687L233.089 83.8229L231.26 86.9687L233.089 90.0104L234.911 86.9687Z" fill="#CFAA5C"/>
<path d="M255.615 79.4583L253.891 76.3125L252.062 79.4583L253.891 82.5L255.615 79.4583Z" fill="#CFAA5C"/>
<path d="M305.245 86.9687L303.417 83.8229L301.589 86.9687L303.417 90.0104L305.245 86.9687Z" fill="#CFAA5C"/>
<path d="M284.437 79.4583L282.609 76.3125L280.885 79.4583L282.609 82.5L284.437 79.4583Z" fill="#CFAA5C"/>
<path d="M300.776 99.9583L294.182 78.1406L281.698 94.4792L269.927 71.1354L273.479 64.0312L268.302 53.6823L263.026 64.0312L266.578 71.1354L254.802 94.375L242.526 78.1406L235.927 100.057L221.719 83.7187L231.464 114.573L231.563 114.776V122.286H304.938V114.776L305.141 114.266L314.781 83.7187L300.776 99.9583ZM301.49 113.052H293.469L299.458 106.151L301.49 113.052ZM292.964 84.7344L298.443 102.698L290.526 111.833L283.323 97.5208L292.964 84.7344ZM287.688 113.052H271.448L281.193 100.26L287.688 113.052ZM266.375 64.0312L268.198 60.4792L270.026 64.0312L268.198 67.6875L266.375 64.0312ZM268.302 74.4844L279.667 97.1146L268.302 112.135L256.938 97.0156L268.302 74.4844ZM237.146 106.25L243.031 113.052H235.115L237.146 106.25ZM265.156 113.052H248.818L255.313 100.057L265.156 113.052ZM243.74 84.7344L253.281 97.3177L246.078 111.833L238.26 102.802L243.74 84.7344ZM229.026 96.9114L234.813 103.51L232.984 109.396L229.026 96.9114ZM301.896 119.24H234.609V116.094H301.896V119.24ZM303.516 109.193L301.792 103.406L307.474 96.9114L303.516 109.193Z" fill="#CFAA5C"/>
</svg>
